# xmcd
#
# Track frame offsets:
#	150
#	17240
#	38107
#	53452
#	71375
#	89004
#	106280
#	122225
#	140380
#	157467
#	178295
#	193585
#	211432
#	229022
#	246272
#	262217
#	291787
#
# Disc length: 3902 seconds
#
# Revision: 2
# Processed by: cddbd v1.5.1PL2 Copyright (c) Steve Scherf et al.
# Submitted via: audiograbber 1.83.01
#
DISCID=060f3c11
DTITLE=Sound Choice - Sc3259
DYEAR=1900
DGENRE=Karaoke Country
TTITLE0=Johnson, Carolyn Dawn - Complicated (Radio Version)
TTITLE1=Wills, Mark - Loving Every Minute
TTITLE2=Griggs, Andy - How Cool Is That
TTITLE3=Shelton, Blake - Austin
TTITLE4=Messina, Jo Dee - Downtime
TTITLE5=Diamond Rio - Sweet Summer
TTITLE6=Rimes, Leann - But I Do Love You "Coyote Ugly"
TTITLE7=Trick Pony - On A Night Like This (Radio Version)
TTITLE8=Johnson, Carolyn Dawn - Complicated (Radio Version) (Vocals)
TTITLE9=Wills, Mark - Loving Every Minute (Vocals)
TTITLE10=Griggs, Andy - How Cool Is That (Vocals)
TTITLE11=Shelton, Blake - Austin (Vocals)
TTITLE12=Messina, Jo Dee - Downtime (Vocals)
TTITLE13=Diamond Rio - Sweet Summer (Vocals)
TTITLE14=Rimes, Leann - But I Do Love You "Coyote Ugly" (Vocals)
TTITLE15=Trick Pony - On A Night Like This (Radio Version) (Vocals)
TTITLE16=Must Furnish Artist Name - Data Track
EXTD=Tracks 9-16 Demos
EXTT0=
EXTT1=
EXTT2=
EXTT3=
EXTT4=
EXTT5=
EXTT6=
EXTT7=
EXTT8=
EXTT9=
EXTT10=
EXTT11=
EXTT12=
EXTT13=
EXTT14=
EXTT15=
EXTT16=
PLAYORDER=
